# xmcd CD database file
#
# Track frame offsets:
#	182
#	27937
#	62797
#	94602
#	120167
#	153195
#	167145
#
# Disc length: 2530 seconds
#
# Revision: 0
# Processed by: cddbd v1.5.2PL0 Copyright (c) Steve Scherf et al.
# Submitted via: CDex 1.70beta2
#
DISCID=4909e007
DTITLE=Lionel Benhamou - Fruits Cuits, Fruits Crus
DYEAR=1988
DGENRE=Jazz
TTITLE0=Rascar Capac
TTITLE1=A E I O U
TTITLE2=Ernest
TTITLE3=Fruits Cuits, Fruits Crus
TTITLE4=Le Derviche Fraiseur
TTITLE5=Rascar Capac Intro
TTITLE6=Un Lémurien
EXTD=YEAR: 1988
EXTT0=
EXTT1=
EXTT2=
EXTT3=
EXTT4=
EXTT5=
EXTT6=
PLAYORDER=
